<svg version="1" xmlns="http://www.w3.org/2000/svg" width="768" height="768" viewBox="0 0 576.000000 576.000000"><path d="M150.9 50.3c-5.5 3.8-7.2 7-7.2 13.4 0 4.6-.6 6.8-3 10.8-3.1 5.3-5.5 9.4-9.3 16-1.2 2.3-7 12.3-12.8 22.4-5.8 10.1-10.6 18.6-10.6 18.9 0 .3-.6 1.3-1.4 2.1-1.2 1.4-2.9 4.5-9.5 16.6-.9 1.6-1.8 3.2-2.1 3.5-.5.5-2.6 4.1-4.6 7.8-.6 1.3-3 3.9-5.3 5.8-3.7 3.2-6.7 9.4-5.9 12.1.2.4-3.5 7.4-8.2 15.6-4.7 8.1-8.9 15.5-9.5 16.5-.5 1-7.1 12.2-14.5 25s-14.9 25.8-16.7 29c-2.3 4.2-4.3 6.3-7.5 8.1-12.1 6.5-12 21.6.2 27.9 1.8.9 4.3 3.5 5.5 5.7 6.3 11.3 25 43.4 26.6 45.7 1.1 1.5 1.9 2.9 1.9 3.2 0 .3 5.2 9.4 11.6 20.3 10.9 18.5 11.7 20.2 11.8 25.4.2 7.4 5.1 14.8 9.8 14.9 1.4 0 6.1 7 13.1 20 2.2 4 26.2 45.7 31.1 54 8.1 13.7 9.2 16.3 9 21.7-.4 9.1 6.1 15.4 15.6 14.9 3-.1 5.8-1 8-2.6l3.3-2.4h52.6l52.6-.1 4.1 2.7c5.1 3.4 12.5 3.3 17.5-.2l3.2-2.4h53.4c29.3-.1 53.3.1 53.3.4 0 1.2 5.7 3.8 9.2 4.3 8.6 1.1 15.9-5.6 16.4-15.2.2-5.9-1-3.6 23.3-45.5 2.8-4.9 5.1-9.1 5.1-9.3 0-.2 1.2-2.2 2.7-4.6 1.4-2.3 4-6.7 5.7-9.8 12.4-22.3 14-24.8 17.6-26.4 5.3-2.4 9-8.5 8.6-14.3-.3-4.3.6-6.1 12.1-26 6.7-11.8 12.3-21.8 12.3-22.3s.5-.9 1-.9c.6 0 1-.4 1-1 0-.5 2.1-4.4 4.6-8.7 2.5-4.3 5.9-10.1 7.4-12.8 12.7-22.5 15.6-26.9 19.4-29 6.1-3.4 8.1-6.9 8.1-14.2 0-5.7-.3-6.5-3.4-9.7-1.8-1.9-4.3-3.7-5.5-4-1.2-.3-3.1-2.2-4.3-4.3-1.1-2.1-5.3-9.4-9.3-16.3-4-6.9-8.1-14.1-9.2-16-1.1-1.9-3.7-6.4-5.8-10-2.1-3.6-4.7-8.1-5.8-10-1-1.9-5.4-9.5-9.7-16.8-7.5-13-7.7-13.5-6.8-17.5 1.8-8.2-3.3-16.4-11.2-18.1-2.6-.6-4-2.4-10-12.8-3.8-6.7-7.5-13.1-8.2-14.3-.7-1.1-1.5-2.7-2-3.5-.4-.8-3.1-5.5-6-10.3-2.9-4.8-5.3-8.9-5.3-9.1 0-.2-3.7-6.6-8.1-14.2-4.5-7.6-9-15.3-9.9-16.9-8.3-14.6-8.4-14.8-8.1-19.1.2-5.5-2.2-10.7-6.2-13.6-4.6-3.3-12.9-3.1-18.2.3l-4 2.6-52.8-.1c-34.1-.1-53-.5-53.5-1.1-2-2.8-6.2-4.4-11-4.1-4.4.3-10.2 2.8-10.2 4.5 0 .3-24 .6-53.2.6h-53.3l-3.3-2.5c-4.5-3.3-11.9-3.7-16.3-.7zM279 75.5c2.1 1.8 8.5 3.4 11.2 2.8 1.3-.2 3.9-1.3 5.8-2.3 3.2-1.6 6.8-1.8 39.2-1.8 33.1 0 39.9.5 31.6 2.4-1.8.3-3.9 1-4.8 1.5-.8.4-11.2 4.3-23 8.5s-30.7 11-42 15.1-22.5 8.1-25 9c-2.5.8-5.4 1.9-6.5 2.3-1.1.5-10.7 4-21.3 7.8-15.2 5.5-19.5 6.7-20.5 5.7-1.4-1.4-28.2-29.5-40.4-42.3-4.6-4.8-8.3-9-8.3-9.3 0-.3 23.1-.6 51.3-.6 39.9 0 51.5.2 52.7 1.2zm119.8 1.4c-1.3 1.4-3.6 3.9-5.3 5.6-1.6 1.7-9.3 9.7-17 17.9-7.7 8.2-16.2 17.2-19 20.1-2.7 2.9-10.2 10.8-16.5 17.6-13 13.8-13.3 14.1-32.8 34.7-7.8 8.2-15.6 16.5-17.3 18.4l-2.9 3.3-8.3-8.6c-4.5-4.7-13.6-14.3-20.2-21.3s-14.7-15.6-18-19c-3.3-3.4-7-7.4-8.3-8.8l-2.3-2.6 8.8-3.2c8.7-3.2 15.8-5.7 44.3-16 8-2.8 17.7-6.3 21.5-7.7 3.9-1.4 11.1-4 16-5.8 24.7-8.9 33.7-12.2 53.5-19.3 11.8-4.3 22.5-7.9 23.8-7.9l2.3-.1-2.3 2.7zm-226.5 7.5c4 4 13.1 13.5 20.2 21.1 7.2 7.6 15.4 16.3 18.3 19.3 3.9 4 5 5.7 4.1 6.3-.7.4-7.6 3-15.4 5.8-7.7 2.7-17.8 6.4-22.5 8.1-4.7 1.7-8.9 3.2-9.5 3.3-.5.2-1.6.6-2.3 1.1-3.6 2.2-3.7.6-3.7-35 0-19.2.4-35.5.8-36.2 1.4-2.1 2.7-1.4 10 6.2zm245.3-.1c2.3 3.9 10.1 17.5 17.3 30 7.2 12.5 14.1 24.7 15.4 27 1.4 2.3 3.7 6.4 5.4 9.2 1.6 2.7 3.2 5.7 3.6 6.5.4.8 1.8 3.3 3.2 5.5 1.4 2.2 3.1 5.1 3.7 6.5.7 1.4 1.8 3.2 2.6 4.1.7.9 2.1 4.4 3.1 7.6l1.8 6-8.9 9.4c-10.4 10.9-40 41.6-60.4 62.8-7.8 8-17.3 17.9-21.1 21.9l-6.9 7.2-12.4-13.2c-6.9-7.2-16.5-17.4-21.5-22.6-4.9-5.2-11-11.6-13.5-14.2-2.5-2.6-11.2-11.9-19.5-20.5-8.2-8.6-15-16.3-15-17 0-.7 5.6-7.2 12.5-14.5 14.6-15.4 17.9-19 28-29.7 4.1-4.4 13.8-14.6 21.5-22.8 7.7-8.1 15.8-16.7 18-19 2.2-2.4 9.6-10.2 16.5-17.5 6.9-7.3 13.9-14.7 15.5-16.6 4.6-5.1 6.4-4.5 11.1 3.9zm-264.1 40.8v28.3l-10 3.7c-13.8 5.1-32.6 11.9-33 11.9-.2 0 4.8-8.9 11.1-19.8 6.3-10.8 15.8-27.4 21.1-36.8 5.4-9.4 10-16.8 10.3-16.4.3.5.5 13.6.5 29.1zm88.6 33.1c7.5 7.8 16.8 17.7 20.7 21.8 3.9 4.1 9.8 10.4 13.1 13.9l6.1 6.5-3.2 3.5c-1.8 1.9-5.3 5.5-7.7 8-2.4 2.5-9.3 9.9-15.5 16.4-6.1 6.5-13.6 14.4-16.6 17.6-3 3.2-11.8 12.5-19.5 20.6-16.5 17.4-16.5 17.5-17 17.5-.3 0-19.2-19.1-32-32.5l-9-9.4v-41c0-25.8.4-41.3 1-41.9.9-.8 9.4-4 35.5-13.2 6.3-2.2 12.1-4.2 12.8-4.5.7-.2 1.4-.5 1.7-.6.2 0 2.6-.9 5.2-1.9l4.8-1.8 3 3.3c1.7 1.8 9.1 9.8 16.6 17.7zm-88.6 39.9c0 19.2-.2 34.9-.5 34.9-.4 0-8.3-8-17.7-17.8-9.5-9.7-19.5-20.1-22.3-23-3.6-3.8-5-5.8-4.5-7 .4-.9.9-2.8 1.1-4.2.3-1.4.8-2.8 1.2-3.2.4-.4 9.7-3.8 20.6-7.7 10.9-3.9 20.1-7.3 20.4-7.6.3-.3.8-.2 1.1.1.3.3.6 16.2.6 35.5zm-41.7 2.1c4.4 4.6 10.8 11.2 14.2 14.8 3.4 3.6 10.9 11.4 16.8 17.4l10.7 10.9v46.5c0 45.5 0 46.7-2 48.8-1.1 1.2-8.1 8.6-15.5 16.4-7.4 7.8-15.7 16.5-18.3 19.4-14.5 15.4-14.8 15.6-16.7 14.6-1.5-.8-10.2-14.6-16-25.5-.9-1.7-10.6-18.3-21.4-37-18.3-31.3-19.8-34.3-19.7-38.4.2-3.6 1.9-7.4 9.2-20 5-8.6 9.5-16.3 10-17.1.5-.8 6.7-11.6 13.8-24 19.5-34.1 18.2-32.2 22.1-33.6 1.9-.7 3.8-1.3 4.1-1.3.3-.1 4.2 3.6 8.7 8.1zm368.8-5c-.3 1.3-1.4 6.3-2.5 11.3-1.1 4.9-2.2 10.1-2.5 11.5-.2 1.4-1.2 6.1-2.1 10.5-.9 4.4-1.8 8.9-2 10-.1 1.1-.7 3.8-1.3 6-.6 2.2-1.3 5.3-1.5 7-.3 1.6-.9 4.8-1.5 7s-1.4 5.6-1.7 7.5c-.3 1.9-1.7 8.5-3 14.7-1.4 6.1-2.6 12.2-2.9 13.5-.2 1.3-.7 3.4-1 4.8-.3 1.4-.8 3.6-1 5-.2 1.4-1 4.7-1.6 7.5-.7 2.7-1.4 5.9-1.5 7-.2 1.1-1.1 5.4-2 9.5-.9 4.1-1.9 8.6-2.1 10-.3 1.3-1.2 5.6-2.1 9.5-1.6 7.2-2.1 9.9-2.2 12.5-.1.8-3.6-2.1-7.9-6.6-8.3-8.8-31.4-33.1-38.3-40.4-2.3-2.5-7.3-7.8-11.2-11.9l-6.9-7.3 6-6.2c3.3-3.3 8.6-8.8 11.9-12.2 36.8-38.5 79.7-82.4 80.5-82.4.5 0 .6 1 .4 2.2zm10.6 16.6c1.8 3.1 4.1 7 5.1 8.7 1 1.6 2.3 4.2 3 5.7.6 1.6 1.5 2.8 1.9 2.8.4 0 .8.4.8.8 0 .5 6.1 11.4 13.6 24.3s14.3 24.7 15.2 26.4c2.3 4.5 1.3 14-1.7 16.5-.4.3-2.2 3.4-4 7-1.9 3.6-3.7 6.7-4 7-.3.3-1.3 1.8-2.2 3.5-1 1.6-3.1 5.5-4.9 8.5-1.7 3-3.4 6.3-3.7 7.2-.3 1-.9 1.8-1.4 1.8-.5 0-.9.4-.9.9s-2.3 4.9-5.1 9.8c-6.5 11.1-8.6 14.8-11.3 19.6-1.1 2.1-2.5 4.6-3.1 5.5-.5.9-3.4 5.9-6.4 11-6.2 10.8-8.4 12.4-12 8.4-1.3-1.5-5.9-6.4-10.2-10.9-5.2-5.5-7.7-8.8-7.4-10 1.4-5.9 3.6-16.2 4.1-18.8.3-1.7 1.1-5.8 1.9-9.3.8-3.4 1.7-7.7 2-9.5.4-1.7 1.7-8.4 3.1-14.7 1.4-6.3 2.9-13.5 3.4-16s1.2-5.6 1.5-7c.3-1.4.8-3.9 1-5.5.3-1.7.8-3.8 1.1-4.7.6-2 1.2-5.1 2-9.8.3-1.9.8-3.8 1-4.1.2-.4.6-2.4.9-4.5.4-2.2.8-4.7 1.1-5.6.6-1.9 1.1-4.5 2.4-11.3 1.5-7.3 1.7-8.3 3.4-16 .9-3.9 1.8-8.4 2.1-10 .3-1.7.7-3.5.9-4 .1-.6.6-3.1 1-5.7.5-2.6 1.2-4.5 1.7-4.3.4.3 2.3 3.1 4.1 6.3zm-173.6 25.8c7.8 8.2 15.9 16.7 17.9 18.9 2.1 2.2 10.6 11.1 18.9 19.8 8.3 8.7 15.1 16.5 15.1 17.2 0 1.2-6.9 8.5-49.6 52.9-7 7.2-16 16.6-20.1 20.8-4.1 4.3-7.9 7.8-8.3 7.8-.9 0-5.2-4.4-53-53.6-13.7-14.2-26-26.7-27.2-27.8-1.3-1.1-2.3-2.4-2.3-3 0-.6 2.8-4.1 6.3-7.7 3.4-3.6 11.8-12.5 18.7-19.9 6.9-7.3 14.4-15.3 16.8-17.8 17-18 29.6-31.3 32.9-34.9l3.8-4.1 8 8.2c4.4 4.6 14.4 15 22.1 23.2zm-138 33c9.3 9.6 17 18.1 17.2 18.7.1.7-2.3 3.9-5.4 7.2-19.9 21.2-29.4 30.8-29.5 29.9-.5-4.2-.3-73.4.2-73.4.4 0 8.2 7.9 17.5 17.6zm35.1 36.1c5.8 6 17.7 18.4 26.6 27.7 8.9 9.3 22.3 23.2 29.7 30.8 7.4 7.7 13.8 14.5 14.2 15.2.4.7-2.6 4.6-7.7 9.9l-8.5 8.6h-53.5c-29.4 0-53.6-.3-53.6-.7-.7-3.7-.3-57.2.4-58.6.5-1 4.8-5.9 9.7-11 4.8-5 10.2-10.7 12-12.6 6.7-7.4 19.2-20 19.7-20 .4 0 5.3 4.8 11 10.7zm173.8 5.9c6.6 7 14 14.8 16.5 17.4 2.5 2.6 10.6 11.2 18 19 7.4 7.9 15 15.8 16.8 17.6 1.7 1.8 3.2 4.1 3.2 5.1s-1.2 7.5-2.6 14.5l-2.7 12.7h-124l-8.4-8.6-8.4-8.5 5.3-5.5c2.9-3 7.6-7.9 10.3-10.7 2.8-2.9 14.9-15.6 27.1-28.2 12.2-12.6 25.2-26.2 29-30.1 3.8-4 7.1-7.3 7.4-7.3.3 0 5.9 5.7 12.5 12.6zm-235.1 60.6c-.1 13.4-.2 24.6-.3 25 0 .5-9.9.7-21.8.5-24.8-.2-25.3-.4-18.6-7.4 2.1-2.2 10.1-10.7 17.8-18.8C143.2 359 153 349 153.4 349c.1 0 .1 10.9 0 24.2zM466.5 397c-.5 1.7-1.8 1.9-10.6 1.9H446l.5-2.9c.3-1.7 1.2-6.2 2-10.1.8-3.9 1.5-7.3 1.5-7.6 0-.3 3.8 3.3 8.5 8.1 6.3 6.5 8.4 9.3 8 10.6zM303 398.7c0 .2-5 .2-11.1.2s-10.9-.2-10.8-.4c.2-.2 2.7-2.8 5.4-5.8l5-5.4 5.7 5.6c3.2 3.1 5.8 5.7 5.8 5.8zm-149.9 9c.6 3.4.2 72.7-.3 73.6-.6.9-.8.8-.8-.1 0-.8-3.4-7.3-7.7-14.5-4.2-7.3-8.4-14.6-9.3-16.3-1-1.6-5.2-9-9.4-16.2-4.2-7.2-7.6-13.6-7.6-14.2 0-.5-.4-1-.9-1s-1.3-1-1.7-2.3c-.4-1.2-.9-2.4-1.3-2.7-.3-.3-1.4-2-2.4-3.8l-1.8-3.2h21.5c11.9 0 21.7.3 21.7.7zm102.7 5c-10.5 10.9-21.3 22.1-43.3 44.8-47.6 49.3-43.2 45.1-45.3 43.2-1-.9-2.4-1.7-3-1.7-.6 0-1.4-.6-1.9-1.3-.8-1.2-1.3-87.1-.5-89.5.3-.9 11.2-1.2 50-1.2h49.6l-5.6 5.7zm59.5-1.3c4.5 4.7 42.4 43.9 54.7 56.6 21.8 22.4 32 33 31.7 33.2-.1.1-22.9.2-50.7.4l-50.5.2-5.6-2.3c-6-2.7-9.4-2.6-14.4.4-2.8 1.6-6.9 1.8-50.7 1.8-34.3 0-47.5-.3-47.1-1.1.7-1.1 6.3-7.1 21.3-22.6 24.7-25.5 53.7-55.5 60.6-62.7l7.9-8.3h38.7l4.1 4.4zm120.3-2.7c-.7 2.2-6.6 29.8-7.1 33.3-.2 1.4-1.1 5.4-1.9 9-1.6 6.8-2.3 10.5-3.2 15.5-3.6 19.8-7.6 31-11.4 31.7-.8.2-3.5-1.7-6-4.3l-61.5-63.3c-3.3-3.4-9.8-10.1-14.4-14.9l-8.5-8.7h57.3c54 0 57.2.1 56.7 1.7zm28 2.5c-1.3 2.4-7.5 13.1-13.7 23.8-6.1 10.7-12.1 21.1-13.1 23-5.9 10.7-5.8 10.8-1.8-7.7 1.7-7.6 3.3-15.4 3.6-17.3.3-1.9.8-3.8 1-4.1.2-.3.5-1.9.8-3.5 1.3-7.6 1.6-9.1 2.5-12.3.6-1.8 1-3.6.9-4 0-.3 0-.9.1-1.4 0-.4 5-.7 11.1-.7h11l-2.4 4.2z"/></svg>